<svg version="1.2" xmlns="http://www.w3.org/2000/svg" viewBox="0 0 527 138" width="527" height="138">
	<title>projeto</title>
	<defs>
		<linearGradient id="g1" x2="1" gradientUnits="userSpaceOnUse" gradientTransform="matrix(-65.93,-89.367,89.869,-66.3,362.109,120.422)">
			<stop offset="0" stop-color="#ac28ff"/>
			<stop offset=".48" stop-color="#7f58ff"/>
			<stop offset=".99" stop-color="#03e4ff"/>
			<stop offset="1" stop-color="#03e4ff"/>
		</linearGradient>
	</defs>
	<style>
		.s0 { fill: #ffffff } 
		.s1 { fill: url(#g1) } 
	</style>
	<g id="Privora">
		<path id="P" fill-rule="evenodd" class="s0" d="m20.9 118h-20.4v-111.6h39.4q18.8 0 29.3 9.3 10.6 9.2 10.6 26.3 0 16.8-10.6 26.1-10.5 9.3-29.3 9.3h-19zm0-94.1l4.1 20.1-4.1 15.7h19q9.4 0 14.2-5 4.9-5 4.9-12.7 0-7.9-4.9-13-4.8-5.1-14.2-5.1z"/>
		<path id="r" class="s0" d="m112.3 119h-20.3v-83.8h20.3zm0-36.6h-5q0-16.4 3.7-27.2 3.7-10.7 9.9-15.9 6.3-5.2 13.9-5.2 2.1 0 3.9 0.2 1.9 0.3 3.7 0.8l-0.4 20.3q-2.2-0.5-4.8-0.9-2.5-0.3-4.6-0.3-6.7 0-11.3 3.3-4.5 3.1-6.8 9.4-2.2 6.3-2.2 15.5z"/>
		<path id="i" class="s0" d="m162.6 23.7q-6 0-9.3-3.1-3.3-3.1-3.3-8.7 0-5.5 3.3-8.6 3.3-3.3 9.3-3.3 5.8 0 9.2 3.3 3.3 3.1 3.3 8.6 0 5.6-3.3 8.7-3.4 3.1-9.2 3.1zm10.7 95.1h-20.3v-83.8h20.3z"/>
		<path id="v" class="s0" d="m212.1 118.4l-31.1-83.4h23.4l19.9 66h-1.5l19.9-66h23.4l-31.1 83.4z"/>
		<path id="r" class="s0" d="m421.3 119h-20.3v-83.8h20.3zm0-36.6h-5q0-16.4 3.7-27.2 3.7-10.7 9.9-15.9 6.3-5.2 13.9-5.2 2.1 0 3.9 0.2 1.9 0.3 3.7 0.8l-0.4 20.3q-2.2-0.5-4.8-0.9-2.5-0.3-4.6-0.3-6.7 0-11.3 3.3-4.5 3.1-6.8 9.4-2.2 6.3-2.2 15.5z"/>
		<path id="a" class="s0" d="m526.8 117.4l-18.5-0.7 0.3-17.1-1.4-34.6c0 0 0.1-4-1.9-7.3-1.9-3.2-3.4-5.5-8.9-6-3.4-0.4-5.6-0.3-8.3 0-2.3 0.2-5.2 1.2-7.4 2.9-1.7 1.3-4.5 6.7-5.4 8.8l-18-7c2.2-6.2 2.4-6.1 5.5-10.5 2.8-4.1 7.3-7.4 13-9.4 5.6-2 11.6-2.4 19.5-2.4 7.2 0 12.8 1.3 18.8 4.5 5.8 3 7 5.7 10.2 10.5 3 4.6 2.5 9.5 2.5 17zm-40.6 1.6c0 0-10.9 0.1-15.4-2-4.9-2.2-10.2-5.1-12.6-9.2q-3.7-6.1-3.7-13.3c0-5.2 1.6-9.2 3.8-13.1 2.6-4.5 7.1-7.4 12.2-9.2 5.1-1.8 10.7-2 17.7-2.1 5.1 0 19.9 0.1 19.9 0.1l4.2 1 1.2 14.9q-4.7-1.5-10.3-2.4-5.6-0.9-10.5-0.9-7.2 0-11.8 2.7-4.7 2.7-4.7 9c0 3.1 1.5 5 4 7.2 2.6 2.2 8.4 2.6 13.9 1.3 3.8-1 7.1-4.4 7.1-4.4 2.5-2.5 4.9-6.9 4.9-6.9 1.4-3 1.6-8.2 1.6-10.9l8.8 7.2c0 6-3.4 8.3-5.7 13.4-2.2 5-5.1 9-9.6 12.1-4.3 3-9.8 5.3-15 5.5z"/>
		<path id="safe" fill-rule="evenodd" class="s1" d="m386.8 39.1l0.1 39.3c-0.9 33-38.9 53.9-50.7 58.6-2.2 0.9-3.6 0.6-5 0-21.6-9.1-51.8-32.1-51.3-61.9v-35.9c-0.1-4.3-0.1-4.8 4.2-6.4l46.2-18.3c2.7-1.6 5.2-2.1 8.1-0.2l44.5 18.1c2.5 1.5 3.9 1.8 3.9 6.7zm-56.3 82.1c3.4 1.8 3.6 1.6 7.1-0.4 7.5-4.1 31-17.5 35.5-41.8l-0.1-32.8c0-2.5-2-3.1-5.4-4.6l-31.5-12.7c-1.6-0.5-2-0.5-3.5 0.2l-35.1 13.7c-3.5 1.2-3.8 2-3.7 3.9v29.8c1 23.6 28 39.9 36.7 44.7zm-5.9-25.5l-18-17.9c-0.9-0.9-1.8-3.8-0.3-6l3.9-4.4c2.3-2 2.9-2.2 5.2-0.3l10.5 11c1 0.8 1 0.9 2.2-0.4l21.7-21.7c2-1.9 4.6-2.1 5.9-0.9l4.9 5.1c0.8 1.6 1.1 4.2-0.6 5.5l-29.9 30.1c-1.5 1-3.5 1.9-5.5-0.1z"/>
	</g>
</svg>