<svg version="1.2" xmlns="http://www.w3.org/2000/svg" viewBox="0 0 548 165" width="548" height="165">
	<title>projeto</title>
	<defs>
		<linearGradient id="g1" x2="1" gradientUnits="userSpaceOnUse" gradientTransform="matrix(222.767,247.407,-176.653,159.059,245.283,-41.809)">
			<stop offset="0" stop-color="#37828b"/>
			<stop offset=".26" stop-color="#37828b"/>
			<stop offset=".61" stop-color="#554294"/>
			<stop offset=".78" stop-color="#633083"/>
			<stop offset="1" stop-color="#633083"/>
		</linearGradient>
		<linearGradient id="g2" x2="1" gradientUnits="userSpaceOnUse" gradientTransform="matrix(222.085,246.651,-176.112,158.572,242.777,5.075)">
			<stop offset="0" stop-color="#37828b"/>
			<stop offset=".26" stop-color="#37828b"/>
			<stop offset=".61" stop-color="#554294"/>
			<stop offset=".78" stop-color="#633083"/>
			<stop offset="1" stop-color="#633083"/>
		</linearGradient>
		<linearGradient id="g3" x2="1" gradientUnits="userSpaceOnUse" gradientTransform="matrix(258.983,287.63,-427.56,384.976,270.008,-61.92)">
			<stop offset="0" stop-color="#04e3fe"/>
			<stop offset=".266" stop-color="#04e3fe"/>
			<stop offset=".611" stop-color="#7e58fe"/>
			<stop offset=".781" stop-color="#ab28ff"/>
			<stop offset="1" stop-color="#ab28ff"/>
		</linearGradient>
		<linearGradient id="g4" x2="1" gradientUnits="userSpaceOnUse" gradientTransform="matrix(258.983,287.63,-427.56,384.976,355.008,-61.92)">
			<stop offset="0" stop-color="#04e3fe"/>
			<stop offset=".266" stop-color="#04e3fe"/>
			<stop offset=".611" stop-color="#7e58fe"/>
			<stop offset=".781" stop-color="#ab28ff"/>
			<stop offset="1" stop-color="#ab28ff"/>
		</linearGradient>
		<linearGradient id="g5" x2="1" gradientUnits="userSpaceOnUse" gradientTransform="matrix(258.983,287.63,-427.56,384.976,185.008,-61.92)">
			<stop offset="0" stop-color="#04e3fe"/>
			<stop offset=".266" stop-color="#04e3fe"/>
			<stop offset=".611" stop-color="#7e58fe"/>
			<stop offset=".781" stop-color="#ab28ff"/>
			<stop offset="1" stop-color="#ab28ff"/>
		</linearGradient>
	</defs>
	<style>
		.s0 { fill: url(#g1) } 
		.s1 { fill: url(#g2) } 
		.s2 { fill: url(#g3) } 
		.s3 { fill: url(#g4) } 
		.s4 { fill: url(#g5) } 
		.s5 { fill: #ffffff } 
	</style>
	<g id="FG BG">
		<path id="BG0" fill-rule="evenodd" class="s0" d="m302.3 0l35 163.8h73.7l-34.3-163.8z"/>
		<path id="BG1" fill-rule="evenodd" class="s1" d="m387.3 1.2l35 163.8h73.7l-34.3-163.8z"/>
		<path id="FG1" fill-rule="evenodd" class="s2" d="m462.7 0l-51.7 163.8h-74.7l52-163.8z"/>
		<path id="FG2" fill-rule="evenodd" class="s3" d="m547.7 0l-51.7 163.8h-74.7l52-163.8z"/>
		<path id="FG0" fill-rule="evenodd" class="s4" d="m377.7 0l-51.7 163.8h-74.7l52-163.8z"/>
	</g>
	<g id="Privora">
		<path id="P" fill-rule="evenodd" class="s5" d="m20.9 141h-20.4v-111.6h39.4q18.8 0 29.3 9.3 10.6 9.2 10.6 26.3 0 16.8-10.6 26.1-10.5 9.3-29.3 9.3h-19zm0-94.1l4.1 20.1-4.1 15.7h19q9.4 0 14.2-5 4.9-5 4.9-12.7 0-7.9-4.9-13-4.8-5.1-14.2-5.1z"/>
		<path id="r" class="s5" d="m112.3 142h-20.3v-83.8h20.3zm0-36.6h-5q0-16.4 3.7-27.2 3.7-10.7 9.9-15.9 6.3-5.2 13.9-5.2 2.1 0 3.9 0.2 1.9 0.3 3.7 0.8l-0.4 20.3q-2.2-0.5-4.8-0.9-2.5-0.3-4.6-0.3-6.7 0-11.3 3.3-4.5 3.1-6.8 9.4-2.2 6.3-2.2 15.5z"/>
		<path id="i" class="s5" d="m162.6 46.7q-6 0-9.3-3.1-3.3-3.1-3.3-8.7 0-5.5 3.3-8.6 3.3-3.3 9.3-3.3 5.8 0 9.2 3.3 3.3 3.1 3.3 8.6 0 5.6-3.3 8.7-3.4 3.1-9.2 3.1zm10.7 95.1h-20.3v-83.8h20.3z"/>
		<path id="v" class="s5" d="m212.1 141.4l-31.1-83.4h23.4l19.9 66h-1.5l19.9-66h23.4l-31.1 83.4z"/>
		<path id="o" fill-rule="evenodd" class="s5" d="m315.8 144.2q-11.5 0-20.8-4.9-9.2-4.9-14.6-14.6c-3.6-6.5-5.9-15.2-5.9-25 0-9.9 2.3-17.7 5.9-24.3q5.4-9.8 14.6-14.6 9.3-4.8 20.8-4.8 11.2 0 20.3 4.8c6.2 3.2 11.9 7.7 15.5 14.2 3.6 6.5 7 14.9 7 24.9 0 9.8-3.5 18.1-7.1 24.6-3.6 6.5-9.9 11.2-16 14.5-6.1 3.3-12.2 5.2-19.7 5.2zm0.6-19.8c4 0 6.1-0.3 9.2-2.3 3.2-2 6.4-4.5 8.6-7.9 2.4-3.5 2.8-8 2.8-13.8 0-8.9-2.5-14.7-6-19.2-3.4-4.4-8-6.3-14-6.3-4.1 0-7.1-0.2-10.3 1.8q-4.7 2.9-7.5 8.9c-1.8 3.9-3 8.6-3 14.5 0 8.7 2.3 15.5 6.4 19.4 3.8 3.6 7.8 4.8 13.8 4.9z"/>
		<path id="r" class="s5" d="m396.3 142h-20.3v-83.8h20.3zm0-36.6h-5q0-16.4 3.7-27.2 3.7-10.7 9.9-15.9 6.3-5.2 13.9-5.2 2.1 0 3.9 0.2 1.9 0.3 3.7 0.8l-0.4 20.3q-2.2-0.5-4.8-0.9-2.5-0.3-4.6-0.3-6.7 0-11.3 3.3-4.5 3.1-6.8 9.4-2.2 6.3-2.2 15.5z"/>
		<path id="a" class="s5" d="m501.7 140.4l-18.5-0.7 0.4-17.1-1.4-34.6c0 0 0.1-4-1.9-7.3-1.9-3.2-3.4-5.5-8.9-6-3.4-0.4-5.7-0.3-8.3 0-2.3 0.2-5.2 1.2-7.4 2.9-1.7 1.3-4.5 6.7-5.4 8.8l-18-7c2.2-6.2 2.4-6.1 5.4-10.5 2.9-4.1 7.4-7.4 13-9.4 5.7-2 11.7-2.4 19.6-2.4 7.2 0 12.8 1.3 18.8 4.5 5.8 3 7 5.7 10.1 10.5 3.1 4.6 2.6 9.5 2.6 17zm-40.6 1.6c0 0-10.9 0.1-15.4-2-4.9-2.2-10.2-5.1-12.6-9.2q-3.7-6.1-3.7-13.3c0-5.2 1.6-9.2 3.8-13.1 2.6-4.5 7.1-7.4 12.2-9.2 5.1-1.8 10.7-2 17.7-2.1 5.1 0 19.9 0.1 19.9 0.1l4.2 1 1.2 14.9q-4.7-1.5-10.3-2.4-5.6-0.9-10.5-0.9-7.2 0-11.8 2.7-4.7 2.7-4.7 9c0 3.1 1.5 5 4 7.2 2.6 2.2 8.4 2.6 13.9 1.3 3.8-1 7.1-4.4 7.1-4.4 2.5-2.5 4.9-6.9 4.9-6.9 1.4-3 1.6-8.2 1.6-10.9l8.8 7.2c0 6-3.4 8.3-5.7 13.4-2.2 5-5.1 9-9.6 12.1-4.3 3-9.8 5.3-15 5.5z"/>
	</g>
</svg>