<svg version="1.2" xmlns="http://www.w3.org/2000/svg" viewBox="0 0 719 214" width="719" height="214">
	<title>privora</title>
	<defs>
		<linearGradient id="g1" x2="1" gradientUnits="userSpaceOnUse" gradientTransform="matrix(-112.797,-152.895,153.753,-113.43,140.693,184.176)">
			<stop offset="0" stop-color="#ac28ff"/>
			<stop offset=".48" stop-color="#7f58ff"/>
			<stop offset=".99" stop-color="#03e4ff"/>
			<stop offset="1" stop-color="#03e4ff"/>
		</linearGradient>
	</defs>
	<style>
		.s0 { fill: url(#g1) } 
		.s1 { fill: #ffffff } 
	</style>
	<g id="Privora">
		<path id="safe" fill-rule="evenodd" class="s0" d="m183 45.1l0.1 67.1c-1.6 56.5-66.6 92.3-86.7 100.4-3.8 1.5-6.3 0.9-8.6-0.1-36.9-15.5-88.5-54.9-87.7-105.9v-61.4c-0.2-7.3-0.2-8.2 7.2-11l79-31.2c4.6-2.8 8.8-3.6 13.8-0.4l76.2 31c4.3 2.5 6.6 3 6.7 11.5zm-96.3 140.3c5.7 3.2 6 2.8 12-0.5 12.8-7.1 53.1-30 60.8-71.7l-0.1-56.1c-0.1-4.2-3.4-5.3-9.3-7.9l-54-21.6c-2.6-0.9-3.3-0.9-5.8 0.3l-60.2 23.5c-5.8 2-6.5 3.3-6.3 6.6l0.1 51c1.7 40.5 47.8 68.3 62.8 76.4zm-10.3-43.6l-30.6-30.6c-1.6-1.5-3.1-6.4-0.5-10.2l6.6-7.5c3.9-3.5 5-3.8 8.9-0.5l17.9 18.8c1.7 1.3 1.8 1.5 3.8-0.7l37.1-37.2c3.5-3.2 7.8-3.5 10-1.5l8.4 8.8c1.5 2.7 1.9 7.1-1 9.4l-51 51.4c-2.6 1.7-6 3.3-9.6-0.2z"/>
		<path id="P" fill-rule="evenodd" class="s1" d="m250.9 168h-20.4v-111.6h39.4q18.8 0 29.3 9.3 10.6 9.2 10.6 26.3 0 16.8-10.6 26.1-10.5 9.3-29.3 9.3h-19zm0-94.1v35.8h19q9.4 0 14.2-5 4.9-5 4.9-12.7 0-7.9-4.9-13-4.8-5.1-14.2-5.1z"/>
		<path id="r" class="s1" d="m342.3 85.2v83.8h-20.3v-83.8zm0 47.2h-5q0-16.5 3.7-27.2 3.7-10.8 9.9-15.9 6.3-5.3 13.9-5.3 2.1 0 3.9 0.3 1.9 0.2 3.7 0.8l-0.3 20.3q-2.3-0.6-4.9-0.9-2.5-0.3-4.6-0.3-6.7 0-11.3 3.2-4.4 3.2-6.8 9.5-2.2 6.3-2.2 15.5z"/>
		<path id="i" class="s1" d="m392.6 73.7q-6 0-9.3-3.1-3.3-3.1-3.3-8.7 0-5.5 3.3-8.6 3.3-3.3 9.3-3.3 5.8 0 9.2 3.3 3.3 3.1 3.3 8.6 0 5.6-3.3 8.7-3.4 3.1-9.2 3.1zm10.7 11.3v83.8h-20.3v-83.8z"/>
		<path id="v" class="s1" d="m442.1 168.4l-31.1-83.4h23.4l19.9 66h-1.5l19.9-66h23.4l-31.1 83.4z"/>
		<path id="o" fill-rule="evenodd" class="s1" d="m539.8 171.2q-11.5 0-20.8-4.9-9.2-4.9-14.6-14.6c-3.6-6.5-5.9-15.2-5.9-25 0-9.9 2.3-17.7 5.9-24.3q5.4-9.8 14.6-14.6 9.3-4.8 20.8-4.8 11.2 0 20.3 4.8c6.2 3.2 11.9 7.7 15.5 14.2 3.6 6.5 7 14.9 7 24.9 0 9.8-3.5 18.1-7.1 24.6-3.6 6.5-9.9 11.2-16 14.5-6.1 3.3-12.2 5.2-19.7 5.2zm0.6-19.8c4 0 6.1-0.3 9.2-2.3 3.2-2 6.4-4.5 8.7-7.9 2.3-3.5 2.7-8 2.7-13.8 0-8.9-2.5-14.7-6-19.2-3.4-4.4-8-6.3-14-6.3-4.1 0-7.1-0.2-10.3 1.8q-4.7 2.9-7.5 8.9c-1.8 3.9-2.9 8.6-2.9 14.5 0 8.7 2.2 15.5 6.3 19.4 3.8 3.6 7.8 4.8 13.8 4.9z"/>
		<path id="r" class="s1" d="m613.3 85.2v83.8h-20.3v-83.8zm0 47.2h-5q0-16.5 3.7-27.2 3.7-10.8 9.9-15.9 6.3-5.3 13.9-5.3 2.1 0 3.9 0.3 1.9 0.2 3.7 0.8l-0.3 20.3q-2.3-0.6-4.9-0.9-2.5-0.3-4.6-0.3-6.7 0-11.3 3.2-4.4 3.2-6.8 9.5-2.2 6.3-2.2 15.5z"/>
		<path id="a" class="s1" d="m718.8 167.4l-18.5-0.7 0.3-17.1-1.4-34.6c0 0 0.1-4-1.9-7.3-1.9-3.2-3.4-5.5-8.9-6-3.4-0.4-5.6-0.3-8.3 0-2.3 0.2-5.2 1.2-7.4 2.9-1.7 1.3-4.5 6.7-5.4 8.8l-18-7c2.2-6.2 2.4-6.1 5.5-10.5 2.8-4.1 7.3-7.4 13-9.4 5.6-2 11.6-2.4 19.5-2.4 7.2 0 12.8 1.3 18.8 4.5 5.8 3 7 5.7 10.2 10.5 3 4.6 2.5 9.5 2.5 17zm-40.6 1.6c0 0-10.9 0.1-15.4-2-4.9-2.2-10.2-5.1-12.6-9.2q-3.7-6.1-3.7-13.3c0-5.2 1.6-9.2 3.8-13.1 2.6-4.5 7.1-7.4 12.2-9.2 5.1-1.8 10.7-2 17.7-2.1 5.1 0 19.9 0.1 19.9 0.1l4.2 1 1.2 14.9q-4.7-1.5-10.3-2.4-5.6-0.9-10.5-0.9-7.2 0-11.8 2.7-4.7 2.7-4.7 9c0 3.1 1.5 5 4 7.2 2.6 2.2 8.4 2.6 13.9 1.3 3.8-1 7.1-4.4 7.1-4.4 2.5-2.5 4.9-6.9 4.9-6.9 1.4-3 1.6-8.2 1.6-10.9l8.8 7.2c0 6-3.4 8.3-5.7 13.4-2.2 5-5.1 9-9.6 12.1-4.3 3-9.8 5.3-15 5.5z"/>
	</g>
</svg>