<svg version="1.2" xmlns="http://www.w3.org/2000/svg" viewBox="0 0 184 214" width="184" height="214">
	<title>privora</title>
	<defs>
		<linearGradient id="g1" x2="1" gradientUnits="userSpaceOnUse" gradientTransform="matrix(-112.797,-152.895,153.753,-113.43,140.693,184.176)">
			<stop offset="0" stop-color="#ac28ff"/>
			<stop offset=".48" stop-color="#7f58ff"/>
			<stop offset=".99" stop-color="#03e4ff"/>
			<stop offset="1" stop-color="#03e4ff"/>
		</linearGradient>
	</defs>
	<style>
		.s0 { fill: url(#g1) } 
	</style>
	<g id="Privora">
		<path id="safe" fill-rule="evenodd" class="s0" d="m183 45.1l0.1 67.1c-1.6 56.5-66.6 92.3-86.7 100.4-3.8 1.5-6.3 0.9-8.6-0.1-36.9-15.5-88.5-54.9-87.7-105.9v-61.4c-0.2-7.3-0.2-8.2 7.2-11l79-31.2c4.6-2.8 8.8-3.6 13.8-0.4l76.2 31c4.3 2.5 6.6 3 6.7 11.5zm-96.3 140.3c5.7 3.2 6 2.8 12-0.5 12.8-7.1 53.1-30 60.8-71.7l-0.1-56.1c-0.1-4.2-3.4-5.3-9.3-7.9l-54-21.6c-2.6-0.9-3.3-0.9-5.8 0.3l-60.2 23.5c-5.8 2-6.5 3.3-6.3 6.6l0.1 51c1.7 40.5 47.8 68.3 62.8 76.4zm-10.3-43.6l-30.6-30.6c-1.6-1.5-3.1-6.4-0.5-10.2l6.6-7.5c3.9-3.5 5-3.8 8.9-0.5l17.9 18.8c1.7 1.3 1.8 1.5 3.8-0.7l37.1-37.2c3.5-3.2 7.8-3.5 10-1.5l8.4 8.8c1.5 2.7 1.9 7.1-1 9.4l-51 51.4c-2.6 1.7-6 3.3-9.6-0.2z"/>
	</g>
</svg>